<svg xmlns="http://www.w3.org/2000/svg" viewBox="0 0 402 438.53"><defs><style>.cls-1{fill:#fff;}</style></defs><title>Asset 1</title><g id="Layer_2" data-name="Layer 2"><g id="Capa_1" data-name="Capa 1"><path class="cls-1" d="M201,219.27q45.41,0,77.52-32.12t32.11-77.52q0-45.39-32.11-77.52T201,0q-45.41,0-77.52,32.12T91.36,109.63q0,45.41,32.12,77.52T201,219.27Z"/><path class="cls-1" d="M401,335a291.34,291.34,0,0,0-4-31.12,241.41,241.41,0,0,0-7.57-31,146.29,146.29,0,0,0-12.28-27.84A100,100,0,0,0,359.44,222,74.68,74.68,0,0,0,335,206.7,85.94,85.94,0,0,0,303.2,201q-2.58,0-12,6.14t-21.26,13.71q-11.85,7.56-30.84,13.69a121.34,121.34,0,0,1-76.22,0q-19-6.12-30.84-13.69t-21.27-13.71q-9.42-6.13-12-6.14A85.85,85.85,0,0,0,67,206.7,74.63,74.63,0,0,0,42.54,222a100.3,100.3,0,0,0-17.7,23.13,147.21,147.21,0,0,0-12.28,27.84,243.12,243.12,0,0,0-7.56,31A288.48,288.48,0,0,0,1,335q-1,14.41-1,29.55,0,34.26,20.84,54.1t55.39,19.84H325.77q34.53,0,55.38-19.84T402,364.59Q402,349.46,401,335Z"/></g></g></svg>