<svg xmlns="http://www.w3.org/2000/svg" viewBox="0 0 20 20"><defs><style>.cls-1{fill:#fff;fill-rule:evenodd;}</style></defs><title>google</title><g id="Layer_2" data-name="Layer 2"><g id="Layer_1-2" data-name="Layer 1"><g id="Page-1"><g id="Dribbble-Light-Preview"><g id="icons"><path class="cls-1" d="M19.82,8H10.21v4h5.56a5.41,5.41,0,0,1-2,3.11h0A6.57,6.57,0,0,1,9,16a6.18,6.18,0,0,1-4.61-4v0A6,6,0,0,1,4.44,8h0A6.13,6.13,0,0,1,9,4a5.83,5.83,0,0,1,5.2,1.4c.19-.19,2.69-2.62,2.87-2.82A10.29,10.29,0,0,0,1.09,5.51h0a9.82,9.82,0,0,0,0,9h0a10.2,10.2,0,0,0,6.48,5.17A10.46,10.46,0,0,0,17,17.59h0c2.17-2,3.53-5.3,2.84-9.59"/></g></g></g></g></g></svg>