<svg xmlns="http://www.w3.org/2000/svg" viewBox="0 0 344 448"><defs><style>.cls-1{fill:#fff;}</style></defs><title>pin</title><g id="Layer_2" data-name="Layer 2"><g id="Layer_1-2" data-name="Layer 1"><path class="cls-1" d="M256.48,20.9C309.45,47.28,344,94.62,344,167.67c0,57.7-24.24,104.46-57.1,134.12-31.67,28.59-75.95,44.57-114.64,29.89A94.26,94.26,0,0,1,141,312.1L117.4,402.58c-3.72,14.81-27.75,48.12-39.1,45.25-11.77-3-15.48-44.26-11.77-59.06l41.62-170.43c-12.25-40.71-7.87-78.31,20.79-97.52a35.37,35.37,0,0,1,22.41-6,36.88,36.88,0,0,1,20.81,8.63,27.59,27.59,0,0,1,9.15,27.94l-21.1,93.28a99.68,99.68,0,0,0,6.14,18.07c6.3,13.68,14.86,22.44,25.67,26.54,12.18,4.62,34.95,1.26,57.62-19.2,21.48-19.38,38.87-60.58,38.87-102.37,0-51.32-26.08-85.73-61-103.1-35.86-17.86-81.71-18-119.88,3C70.32,88,54.8,119.44,50.59,150.16c-4.45,32.5-2.56,59,15.94,77.39,6,6,0,25.93-9.25,41.45-12.66,8.6-33-11.76-41.63-24.37-9.86-14.39-19.78-56.92-13.88-100C7.92,99.77,29.67,51.23,85,20.9,139.35-8.87,204.48-5,256.48,20.9Z"/></g></g></svg>