<svg xmlns="http://www.w3.org/2000/svg" viewBox="0 0 12.89 12.89"><defs><style>.cls-1{fill:#fff;}</style></defs><title>rocket</title><g id="Layer_2" data-name="Layer 2"><g id="rocket-15"><path id="path7143" class="cls-1" d="M11.44,0c-2.14,0-5,1.47-6.95,4H2.89A2.63,2.63,0,0,0,.61,5.78L0,7H2.89l1.5,1.5L5.89,10v2.89l1.22-.61A2.64,2.64,0,0,0,8.89,10V8.4c2.53-1.93,4-4.81,4-6.95V0ZM8.89,3a1,1,0,0,1,1,1h0a1,1,0,0,1-1,1h0a1,1,0,0,1-1-1h0a1,1,0,0,1,1-1ZM2.39,9l-.5.5a5.7,5.7,0,0,0-1,2.5,5.07,5.07,0,0,0,2.5-1l.5-.5Z"/></g></g></svg>