<svg xmlns="http://www.w3.org/2000/svg" viewBox="0 0 42.85 42.81"><defs><style>.cls-1{fill:#fff;}</style></defs><title>search</title><g id="Layer_2" data-name="Layer 2"><g id="Layer_1-2" data-name="Layer 1"><g id="Layer_63" data-name="Layer 63"><path class="cls-1" d="M42.6,40.48l-9.84-9.84C43,18.82,34.39-.06,18.61,0A18.63,18.63,0,0,0,0,18.6C-.06,34.39,18.82,43,30.64,32.76l9.88,9.8a1.5,1.5,0,0,0,2.08-.42A1.48,1.48,0,0,0,42.6,40.48ZM3,18.56A15.63,15.63,0,0,1,18.61,3c20.69.86,20.69,30.35,0,31.21A15.62,15.62,0,0,1,3,18.56Z"/></g></g></g></svg>