<svg xmlns="http://www.w3.org/2000/svg" viewBox="0 0 60.6 60.7"><defs><style>.cls-1{fill:#fefffd;}</style></defs><title>smile</title><g id="Layer_2" data-name="Layer 2"><g id="Layer_1-2" data-name="Layer 1"><path class="cls-1" d="M30.3,60.7A30.35,30.35,0,1,1,60.6,30.3,30.34,30.34,0,0,1,30.3,60.7ZM30.3,4A26.35,26.35,0,1,0,56.5,30.4,26.5,26.5,0,0,0,30.3,4Z"/><path class="cls-1" d="M30.8,47.1h-.5A15.66,15.66,0,0,1,14.7,35.7a1.92,1.92,0,0,1,1.5-2.4,1.92,1.92,0,0,1,2.4,1.5,11.84,11.84,0,0,0,11.8,8.4h.5a11.73,11.73,0,0,0,11.8-8.4,1.94,1.94,0,0,1,2.4-1.4,2,2,0,0,1,1.5,2.4A16.18,16.18,0,0,1,30.8,47.1Z"/><circle class="cls-1" cx="19.8" cy="24.5" r="3.5"/><circle class="cls-1" cx="40.5" cy="24.5" r="3.5"/></g></g></svg>