<svg xmlns="http://www.w3.org/2000/svg" viewBox="0 0 20 19"><defs><style>.cls-1{fill:#59b001;}</style></defs><title>star</title><g id="Layer_2" data-name="Layer 2"><g id="Layer_1-2" data-name="Layer 1"><g id="Star"><path class="cls-1" d="M15.92,11.82a1.1,1.1,0,0,0-.32,1l.89,4.92A1.08,1.08,0,0,1,16,18.79a1.1,1.1,0,0,1-1.17.08l-4.43-2.31a1.13,1.13,0,0,0-.5-.13H9.67a.78.78,0,0,0-.27.09L5,18.84a1.17,1.17,0,0,1-.71.11,1.11,1.11,0,0,1-.89-1.27l.89-4.92a1.12,1.12,0,0,0-.32-1L.33,8.28A1.08,1.08,0,0,1,.06,7.15,1.13,1.13,0,0,1,1,6.4l5-.72a1.11,1.11,0,0,0,.88-.61L9,.58a1.05,1.05,0,0,1,.2-.27L9.28.24A.7.7,0,0,1,9.44.11l.11,0L9.72,0h.42A1.12,1.12,0,0,1,11,.6l2.22,4.47a1.12,1.12,0,0,0,.83.61l5,.72a1.13,1.13,0,0,1,.91.75,1.09,1.09,0,0,1-.29,1.13Z"/></g></g></g></svg>