<svg xmlns="http://www.w3.org/2000/svg" viewBox="0 0 20 16"><defs><style>.cls-1{fill:#fff;fill-rule:evenodd;}</style></defs><title>twitter</title><g id="Layer_2" data-name="Layer 2"><g id="Layer_1-2" data-name="Layer 1"><g id="Page-1"><g id="Dribbble-Light-Preview"><g id="icons"><path class="cls-1" d="M6.29,16A11.51,11.51,0,0,0,18,4.51,4.7,4.7,0,0,0,18,4,8.14,8.14,0,0,0,20,1.89a8.34,8.34,0,0,1-2.36.64A4.09,4.09,0,0,0,19.45.29a8.17,8.17,0,0,1-2.61,1A4.15,4.15,0,0,0,11,1.1,4,4,0,0,0,9.85,5,11.77,11.77,0,0,1,1.39.74,4,4,0,0,0,2.66,6.13,4.05,4.05,0,0,1,.8,5.62v.06a4.07,4.07,0,0,0,3.29,4,4.13,4.13,0,0,1-1.85.06,4.1,4.1,0,0,0,3.83,2.81A8.22,8.22,0,0,1,1,14.24c-.33,0-.66,0-1-.05A11.83,11.83,0,0,0,6.29,16"/></g></g></g></g></g></svg>